<svg xmlns="http://www.w3.org/2000/svg" viewBox="0 0 100 100" fill="none">
  <path d="M87.5 41.7c2.1-6.2 1-13.2-3.6-18.2-6.1-6.7-15.8-8.7-24.1-5.2C55.6 12.7 48.8 9 41.6 9.1c-9.7.1-18.1 6.4-21 15.8C13.8 26.4 8 31.6 5.7 38.8c-3.2 9.5-.2 20 7.3 26.2-2.1 6.2-1 13.2 3.6 18.2 6.1 6.7 15.8 8.7 24.1 5.2 4.2 5.6 11 9.3 18.2 9.2 9.7-.1 18.1-6.4 21-15.8 6.8 1.5 12.6-3.7 14.9-10.9 3.2-9.5.2-20-7.3-26.2zM59.2 87.3c-4.6.1-9-1.8-12.2-5.1l.6-.3 20.2-11.7c1-.6 1.7-1.7 1.7-2.9V43.8l8.5 4.9c.1.1.1.2.1.3v23.6c-.1 8.5-6.9 15.6-18.9 14.7zm-38-12.4c-2.3-4-3-8.7-2-13.1l.6.4 20.2 11.7c1 .6 2.3.6 3.3 0l24.7-14.3v9.9c0 .1 0 .2-.1.3L47.4 81.6c-9 5.2-19.2 2.5-26.2-6.7zM17.7 36c2.3-4 6.1-7 10.6-8.4v24.1c0 1.2.6 2.3 1.7 2.9l24.7 14.3-8.5 4.9c-.1.1-.2.1-.3 0L25.4 62c-9-5.2-11.8-15.2-7.7-26zm62.8 14.6L55.8 36.3l8.5-4.9c.1-.1.2-.1.3 0L85.1 43c7.6 4.4 12.2 14.6 8.2 24.9-2.3 4-6.1 7-10.6 8.4V52.2c0-1.2-.6-2.3-1.7-2.9l.5 1.3zm8.4-13.2l-.6-.4-20.2-11.7c-1-.6-2.3-.6-3.3 0L40.1 39.6v-9.9c0-.1 0-.2.1-.3L60.7 18c9-5.2 21.4-1 26.4 8.1 2.3 4.4 2.9 8.8 1.8 11.3zM36.1 56.2l-8.5-4.9c-.1-.1-.1-.2-.1-.3V27.4c0-10.6 10.4-18.2 20.3-14.5 4.2 1.6 7.5 4.5 9.5 8.3l-.6.3L36.5 33.2c-1 .6-1.7 1.7-1.7 2.9l1.3 20.1zM40.1 49l11-6.4 11 6.4v12.7l-11 6.4-11-6.4V49z" fill="#FFFFFF"/>
</svg>
